<?xml version="1.0" encoding="UTF-8" standalone="no"?><!-- Created with Inkscape (http://www.inkscape.org/) -->

<svg
   xmlns:dc="http://purl.org/dc/elements/1.1/"
   xmlns:cc="http://creativecommons.org/ns#"
   xmlns:rdf="http://www.w3.org/1999/02/22-rdf-syntax-ns#"
   xmlns="http://www.w3.org/2000/svg"
   xmlns:xlink="http://www.w3.org/1999/xlink"
   xmlns:sodipodi="http://sodipodi.sourceforge.net/DTD/sodipodi-0.dtd"
   xmlns:inkscape="http://www.inkscape.org/namespaces/inkscape"
   id="svg2"
   version="1.1"
   inkscape:version="0.92.2 2405546, 2018-03-11"
   width="1000"
   height="1000"
   xml:space="preserve"
   sodipodi:docname="flame.svg"
   inkscape:export-filename="C:\Users\Fred\Documents\git\Flym\mobile\src\main\res\mipmap-xxhdpi\ic_launcher.png"
   inkscape:export-xdpi="12.96"
   inkscape:export-ydpi="12.96"><metadata
     id="metadata8"><rdf:RDF><cc:Work
         rdf:about=""><dc:format>image/svg+xml</dc:format><dc:type
           rdf:resource="http://purl.org/dc/dcmitype/StillImage" /><dc:title /></cc:Work></rdf:RDF></metadata><defs
     id="defs6"><clipPath
       clipPathUnits="userSpaceOnUse"
       id="clipPath16"><path
         d="M 0,0 800,0 800,800 0,800 0,0 z"
         id="path18" /></clipPath><radialGradient
       fx="0"
       fy="0"
       cx="0"
       cy="0"
       r="1"
       gradientUnits="userSpaceOnUse"
       gradientTransform="matrix(610.56799,0,0,-610.56799,400,400)"
       spreadMethod="pad"
       id="radialGradient24"><stop
         style="stop-opacity:1;stop-color:#a97c50"
         offset="0"
         id="stop26" /><stop
         style="stop-opacity:1;stop-color:#3c2415"
         offset="1"
         id="stop28" /></radialGradient><clipPath
       clipPathUnits="userSpaceOnUse"
       id="clipPath36"><path
         d="M 0,800 800,800 800,0 0,0 0,800 z"
         id="path38" /></clipPath><clipPath
       clipPathUnits="userSpaceOnUse"
       id="clipPath44"><path
         d="m 128.672,751.83 529.701,0 0,-53.714 -529.701,0 0,53.714 z"
         id="path46" /></clipPath><clipPath
       clipPathUnits="userSpaceOnUse"
       id="clipPath48"><path
         d="m 128.563,752.866 529.923,0 0,-55.786 -529.923,0 0,55.786 z"
         id="path50" /></clipPath><clipPath
       clipPathUnits="userSpaceOnUse"
       id="clipPath52"><path
         d="m 658.373,722.954 c 0.113,14.795 -118.382,27.686 -264.653,28.799 -146.265,1.113 -264.933,-9.971 -265.048,-24.766 -0.11,-14.785 118.374,-27.68 264.641,-28.794 146.265,-1.113 264.947,9.976 265.06,24.761"
         id="path54" /></clipPath><clipPath
       clipPathUnits="userSpaceOnUse"
       id="clipPath56"><path
         d="m -24174,24974 32766,0 0,-32766 -32766,0 0,32766 z"
         id="path58" /></clipPath><clipPath
       clipPathUnits="userSpaceOnUse"
       id="clipPath60"><path
         d="m -24174,24974 32766,0 0,-32766 -32766,0 0,32766 z"
         id="path62" /></clipPath><mask
       maskUnits="userSpaceOnUse"
       x="0"
       y="0"
       width="1"
       height="1"
       id="mask64"><g
         id="g66"><g
           clip-path="url(#clipPath56)"
           id="g68"><g
             id="g70"><g
               id="g72" /><g
               id="g74"><g
                 clip-path="url(#clipPath60)"
                 id="g76" /></g></g></g></g></mask><radialGradient
       fx="0"
       fy="0"
       cx="0"
       cy="0"
       r="1"
       gradientUnits="userSpaceOnUse"
       gradientTransform="matrix(264.94162,-2.02297,-0.202297,-26.770634,393.52246,724.97266)"
       spreadMethod="pad"
       id="radialGradient78"><stop
         style="stop-opacity:1;stop-color:#ffffff"
         offset="0"
         id="stop80" /><stop
         style="stop-opacity:1;stop-color:#231f20"
         offset="1"
         id="stop82" /></radialGradient><mask
       maskUnits="userSpaceOnUse"
       x="0"
       y="0"
       width="1"
       height="1"
       id="mask84"><g
         id="g86"><g
           clip-path="url(#clipPath44)"
           opacity="0.899994"
           id="g88"><g
             id="g90"><g
               id="g92" /><g
               id="g94"><g
                 clip-path="url(#clipPath48)"
                 id="g96"><g
                   id="g98"><g
                     clip-path="url(#clipPath52)"
                     id="g100"><g
                       id="g102"><g
                         id="g104" /><g
                         mask="url(#mask64)"
                         id="g106"><g
                           id="g108"><path
                             d="m 658.373,722.954 c 0.113,14.795 -118.382,27.686 -264.653,28.799 -146.265,1.113 -264.933,-9.971 -265.048,-24.766 -0.11,-14.785 118.374,-27.68 264.641,-28.794 146.265,-1.113 264.947,9.976 265.06,24.761"
                             style="fill:url(#radialGradient78);stroke:none"
                             id="path110" /></g></g></g></g></g></g></g></g></g></g></mask><clipPath
       clipPathUnits="userSpaceOnUse"
       id="clipPath116"><path
         d="m 128.672,751.83 529.701,0 0,-53.714 -529.701,0 0,53.714 z"
         id="path118" /></clipPath><radialGradient
       fx="0"
       fy="0"
       cx="0"
       cy="0"
       r="1"
       gradientUnits="userSpaceOnUse"
       gradientTransform="matrix(264.94162,-2.02297,-0.202297,-26.770634,393.52246,724.97266)"
       spreadMethod="pad"
       id="radialGradient124"><stop
         style="stop-opacity:1;stop-color:#666666"
         offset="0"
         id="stop126" /><stop
         style="stop-opacity:1;stop-color:#f2f2f2"
         offset="1"
         id="stop128" /></radialGradient><linearGradient
       x1="0"
       y1="0"
       x2="1"
       y2="0"
       gradientUnits="userSpaceOnUse"
       gradientTransform="matrix(-523.34747,-15.026128,-15.026128,523.34747,662.22461,399.26172)"
       spreadMethod="pad"
       id="linearGradient156"><stop
         style="stop-opacity:1;stop-color:#939598"
         offset="0"
         id="stop158" /><stop
         style="stop-opacity:1;stop-color:#f1f2f2"
         offset="0.917923"
         id="stop160" /><stop
         style="stop-opacity:1;stop-color:#a7a9ac"
         offset="1"
         id="stop162" /></linearGradient><linearGradient
       x1="0"
       y1="0"
       x2="1"
       y2="0"
       gradientUnits="userSpaceOnUse"
       gradientTransform="matrix(-529.09326,-4.63e-5,-4.63e-5,529.09326,662.24121,387.85645)"
       spreadMethod="pad"
       id="linearGradient178"><stop
         style="stop-opacity:1;stop-color:#bcbec0"
         offset="0"
         id="stop180" /><stop
         style="stop-opacity:1;stop-color:#f1f2f2"
         offset="0.917923"
         id="stop182" /><stop
         style="stop-opacity:1;stop-color:#a7a9ac"
         offset="1"
         id="stop184" /></linearGradient><linearGradient
       x1="0"
       y1="0"
       x2="1"
       y2="0"
       gradientUnits="userSpaceOnUse"
       gradientTransform="matrix(-542.742,22.815655,22.815655,542.742,661.43945,368.79395)"
       spreadMethod="pad"
       id="linearGradient200"><stop
         style="stop-opacity:1;stop-color:#d1d3d4"
         offset="0"
         id="stop202" /><stop
         style="stop-opacity:1;stop-color:#f1f2f2"
         offset="0.917923"
         id="stop204" /><stop
         style="stop-opacity:1;stop-color:#a7a9ac"
         offset="1"
         id="stop206" /></linearGradient><clipPath
       clipPathUnits="userSpaceOnUse"
       id="clipPath214"><path
         d="M 0,800 800,800 800,0 0,0 0,800 z"
         id="path216" /></clipPath><clipPath
       clipPathUnits="userSpaceOnUse"
       id="clipPath222"><path
         d="m 136.672,69.8281 529.701,0 0,-53.709 -529.701,0 0,53.709 z"
         id="path224" /></clipPath><clipPath
       clipPathUnits="userSpaceOnUse"
       id="clipPath226"><path
         d="m 136.563,70.8643 529.923,0 0,-55.7813 -529.923,0 0,55.7813 z"
         id="path228" /></clipPath><clipPath
       clipPathUnits="userSpaceOnUse"
       id="clipPath230"><path
         d="M 666.373,40.957 C 666.486,55.752 547.991,68.638 401.72,69.751 255.455,70.864 136.787,59.78 136.672,44.99 136.562,30.2 255.046,17.305 401.313,16.196 547.578,15.083 666.26,26.172 666.373,40.957"
         id="path232" /></clipPath><clipPath
       clipPathUnits="userSpaceOnUse"
       id="clipPath234"><path
         d="m -24174,24974 32766,0 0,-32766 -32766,0 0,32766 z"
         id="path236" /></clipPath><clipPath
       clipPathUnits="userSpaceOnUse"
       id="clipPath238"><path
         d="m -24174,24974 32766,0 0,-32766 -32766,0 0,32766 z"
         id="path240" /></clipPath><mask
       maskUnits="userSpaceOnUse"
       x="0"
       y="0"
       width="1"
       height="1"
       id="mask242"><g
         id="g244"><g
           clip-path="url(#clipPath234)"
           id="g246"><g
             id="g248"><g
               id="g250" /><g
               id="g252"><g
                 clip-path="url(#clipPath238)"
                 id="g254" /></g></g></g></g></mask><radialGradient
       fx="0"
       fy="0"
       cx="0"
       cy="0"
       r="1"
       gradientUnits="userSpaceOnUse"
       gradientTransform="matrix(264.92892,-2.0228732,-0.2022873,-26.769352,401.52344,42.973633)"
       spreadMethod="pad"
       id="radialGradient256"><stop
         style="stop-opacity:1;stop-color:#ffffff"
         offset="0"
         id="stop258" /><stop
         style="stop-opacity:1;stop-color:#231f20"
         offset="1"
         id="stop260" /></radialGradient><mask
       maskUnits="userSpaceOnUse"
       x="0"
       y="0"
       width="1"
       height="1"
       id="mask262"><g
         id="g264"><g
           clip-path="url(#clipPath222)"
           opacity="0.399994"
           id="g266"><g
             id="g268"><g
               id="g270" /><g
               id="g272"><g
                 clip-path="url(#clipPath226)"
                 id="g274"><g
                   id="g276"><g
                     clip-path="url(#clipPath230)"
                     id="g278"><g
                       id="g280"><g
                         id="g282" /><g
                         mask="url(#mask242)"
                         id="g284"><g
                           id="g286"><path
                             d="M 666.373,40.957 C 666.486,55.752 547.991,68.638 401.72,69.751 255.455,70.864 136.787,59.78 136.672,44.99 136.562,30.2 255.046,17.305 401.313,16.196 547.578,15.083 666.26,26.172 666.373,40.957"
                             style="fill:url(#radialGradient256);stroke:none"
                             id="path288" /></g></g></g></g></g></g></g></g></g></g></mask><clipPath
       clipPathUnits="userSpaceOnUse"
       id="clipPath294"><path
         d="m 136.672,69.8281 529.701,0 0,-53.709 -529.701,0 0,53.709 z"
         id="path296" /></clipPath><radialGradient
       fx="0"
       fy="0"
       cx="0"
       cy="0"
       r="1"
       gradientUnits="userSpaceOnUse"
       gradientTransform="matrix(264.92892,-2.0228732,-0.2022873,-26.769352,401.52344,42.973633)"
       spreadMethod="pad"
       id="radialGradient302"><stop
         style="stop-opacity:1;stop-color:#666666"
         offset="0"
         id="stop304" /><stop
         style="stop-opacity:1;stop-color:#f2f2f2"
         offset="1"
         id="stop306" /></radialGradient><clipPath
       clipPathUnits="userSpaceOnUse"
       id="clipPath326"><path
         d="m 115.025,735.825 53.814,0 0,-684.6287 -53.814,0 0,684.6287 z"
         id="path328" /></clipPath><clipPath
       clipPathUnits="userSpaceOnUse"
       id="clipPath330"><path
         d="m 113.715,735.937 56.435,0 0,-684.8481 -56.435,0 0,684.8481 z"
         id="path332" /></clipPath><clipPath
       clipPathUnits="userSpaceOnUse"
       id="clipPath334"><path
         d="m 144.54,735.825 c -14.794,0.112 -27.948,-153.066 -29.387,-342.119 -1.438,-189.043 9.383,-342.393 24.174,-342.51 14.789,-0.107 27.947,153.057 29.384,342.105 1.439,189.043 -9.386,342.407 -24.171,342.524"
         id="path336" /></clipPath><clipPath
       clipPathUnits="userSpaceOnUse"
       id="clipPath338"><path
         d="m -24174,24974 32766,0 0,-32766 -32766,0 0,32766 z"
         id="path340" /></clipPath><clipPath
       clipPathUnits="userSpaceOnUse"
       id="clipPath342"><path
         d="m -24174,24974 32766,0 0,-32766 -32766,0 0,32766 z"
         id="path344" /></clipPath><mask
       maskUnits="userSpaceOnUse"
       x="0"
       y="0"
       width="1"
       height="1"
       id="mask346"><g
         id="g348"><g
           clip-path="url(#clipPath338)"
           id="g350"><g
             id="g352"><g
               id="g354" /><g
               id="g356"><g
                 clip-path="url(#clipPath342)"
                 id="g358" /></g></g></g></g></mask><radialGradient
       fx="0"
       fy="0"
       cx="0"
       cy="0"
       r="1"
       gradientUnits="userSpaceOnUse"
       gradientTransform="matrix(2.5961237,342.41861,26.770418,-0.2022953,141.93262,393.51074)"
       spreadMethod="pad"
       id="radialGradient360"><stop
         style="stop-opacity:1;stop-color:#ffffff"
         offset="0"
         id="stop362" /><stop
         style="stop-opacity:1;stop-color:#231f20"
         offset="1"
         id="stop364" /></radialGradient><mask
       maskUnits="userSpaceOnUse"
       x="0"
       y="0"
       width="1"
       height="1"
       id="mask366"><g
         id="g368"><g
           clip-path="url(#clipPath326)"
           opacity="0.399994"
           id="g370"><g
             id="g372"><g
               id="g374" /><g
               id="g376"><g
                 clip-path="url(#clipPath330)"
                 id="g378"><g
                   id="g380"><g
                     clip-path="url(#clipPath334)"
                     id="g382"><g
                       id="g384"><g
                         id="g386" /><g
                         mask="url(#mask346)"
                         id="g388"><g
                           id="g390"><path
                             d="m 144.54,735.825 c -14.794,0.112 -27.948,-153.066 -29.387,-342.119 -1.438,-189.043 9.383,-342.393 24.174,-342.51 14.789,-0.107 27.947,153.057 29.384,342.105 1.439,189.043 -9.386,342.407 -24.171,342.524"
                             style="fill:url(#radialGradient360);stroke:none"
                             id="path392" /></g></g></g></g></g></g></g></g></g></g></mask><clipPath
       clipPathUnits="userSpaceOnUse"
       id="clipPath398"><path
         d="m 115.025,735.825 53.814,0 0,-684.6287 -53.814,0 0,684.6287 z"
         id="path400" /></clipPath><radialGradient
       fx="0"
       fy="0"
       cx="0"
       cy="0"
       r="1"
       gradientUnits="userSpaceOnUse"
       gradientTransform="matrix(2.5961237,342.41861,26.770418,-0.2022953,141.93262,393.51074)"
       spreadMethod="pad"
       id="radialGradient406"><stop
         style="stop-opacity:1;stop-color:#666666"
         offset="0"
         id="stop408" /><stop
         style="stop-opacity:1;stop-color:#f2f2f2"
         offset="1"
         id="stop410" /></radialGradient><clipPath
       clipPathUnits="userSpaceOnUse"
       id="clipPath430"><path
         d="m 619.025,735.825 53.815,0 0,-684.6287 -53.815,0 0,684.6287 z"
         id="path432" /></clipPath><clipPath
       clipPathUnits="userSpaceOnUse"
       id="clipPath434"><path
         d="m 617.715,735.937 56.435,0 0,-684.8481 -56.435,0 0,684.8481 z"
         id="path436" /></clipPath><clipPath
       clipPathUnits="userSpaceOnUse"
       id="clipPath438"><path
         d="m 648.54,735.825 c -14.794,0.112 -27.948,-153.066 -29.387,-342.119 -1.438,-189.043 9.382,-342.393 24.173,-342.51 14.789,-0.107 27.947,153.057 29.385,342.105 1.439,189.043 -9.386,342.407 -24.171,342.524"
         id="path440" /></clipPath><clipPath
       clipPathUnits="userSpaceOnUse"
       id="clipPath442"><path
         d="m -24174,24974 32766,0 0,-32766 -32766,0 0,32766 z"
         id="path444" /></clipPath><clipPath
       clipPathUnits="userSpaceOnUse"
       id="clipPath446"><path
         d="m -24174,24974 32766,0 0,-32766 -32766,0 0,32766 z"
         id="path448" /></clipPath><mask
       maskUnits="userSpaceOnUse"
       x="0"
       y="0"
       width="1"
       height="1"
       id="mask450"><g
         id="g452"><g
           clip-path="url(#clipPath442)"
           id="g454"><g
             id="g456"><g
               id="g458" /><g
               id="g460"><g
                 clip-path="url(#clipPath446)"
                 id="g462" /></g></g></g></g></mask><radialGradient
       fx="0"
       fy="0"
       cx="0"
       cy="0"
       r="1"
       gradientUnits="userSpaceOnUse"
       gradientTransform="matrix(2.596139,342.42062,26.770575,-0.2022965,645.93262,393.51074)"
       spreadMethod="pad"
       id="radialGradient464"><stop
         style="stop-opacity:1;stop-color:#ffffff"
         offset="0"
         id="stop466" /><stop
         style="stop-opacity:1;stop-color:#231f20"
         offset="1"
         id="stop468" /></radialGradient><mask
       maskUnits="userSpaceOnUse"
       x="0"
       y="0"
       width="1"
       height="1"
       id="mask470"><g
         id="g472"><g
           clip-path="url(#clipPath430)"
           opacity="0.399994"
           id="g474"><g
             id="g476"><g
               id="g478" /><g
               id="g480"><g
                 clip-path="url(#clipPath434)"
                 id="g482"><g
                   id="g484"><g
                     clip-path="url(#clipPath438)"
                     id="g486"><g
                       id="g488"><g
                         id="g490" /><g
                         mask="url(#mask450)"
                         id="g492"><g
                           id="g494"><path
                             d="m 648.54,735.825 c -14.794,0.112 -27.948,-153.066 -29.387,-342.119 -1.438,-189.043 9.382,-342.393 24.173,-342.51 14.789,-0.107 27.947,153.057 29.385,342.105 1.439,189.043 -9.386,342.407 -24.171,342.524"
                             style="fill:url(#radialGradient464);stroke:none"
                             id="path496" /></g></g></g></g></g></g></g></g></g></g></mask><clipPath
       clipPathUnits="userSpaceOnUse"
       id="clipPath502"><path
         d="m 619.025,735.825 53.815,0 0,-684.6287 -53.815,0 0,684.6287 z"
         id="path504" /></clipPath><radialGradient
       fx="0"
       fy="0"
       cx="0"
       cy="0"
       r="1"
       gradientUnits="userSpaceOnUse"
       gradientTransform="matrix(2.596139,342.42062,26.770575,-0.2022965,645.93262,393.51074)"
       spreadMethod="pad"
       id="radialGradient510"><stop
         style="stop-opacity:1;stop-color:#666666"
         offset="0"
         id="stop512" /><stop
         style="stop-opacity:1;stop-color:#f2f2f2"
         offset="1"
         id="stop514" /></radialGradient><linearGradient
       x1="0"
       y1="0"
       x2="1"
       y2="0"
       gradientUnits="userSpaceOnUse"
       gradientTransform="matrix(-529.09326,-4.63e-5,-4.63e-5,529.09326,662.24121,387.85645)"
       spreadMethod="pad"
       id="linearGradient542"><stop
         style="stop-opacity:1;stop-color:#e6e7e8"
         offset="0"
         id="stop544" /><stop
         style="stop-opacity:1;stop-color:#f1f2f2"
         offset="0.917923"
         id="stop546" /><stop
         style="stop-opacity:1;stop-color:#d1d3d4"
         offset="1"
         id="stop548" /></linearGradient><clipPath
       clipPathUnits="userSpaceOnUse"
       id="clipPath574"><path
         d="M 0,800 800,800 800,0 0,0 0,800 z"
         id="path576" /></clipPath><clipPath
       clipPathUnits="userSpaceOnUse"
       id="clipPath582"><path
         d="m 182,588.999 174,0 0,-520 -174,0 0,520 z"
         id="path584" /></clipPath><linearGradient
       x1="0"
       y1="0"
       x2="1"
       y2="0"
       gradientUnits="userSpaceOnUse"
       gradientTransform="matrix(72.442032,70.632767,70.632767,-72.442032,500.89258,598.33398)"
       spreadMethod="pad"
       id="linearGradient730"><stop
         style="stop-opacity:1;stop-color:#ffffff"
         offset="0"
         id="stop732" /><stop
         style="stop-opacity:1;stop-color:#f1f2f2"
         offset="0.751076"
         id="stop734" /><stop
         style="stop-opacity:1;stop-color:#a7a9ac"
         offset="1"
         id="stop736" /></linearGradient><clipPath
       clipPathUnits="userSpaceOnUse"
       id="clipPath744"><path
         d="M 0,800 800,800 800,0 0,0 0,800 z"
         id="path746" /></clipPath><clipPath
       clipPathUnits="userSpaceOnUse"
       id="clipPath840"><path
         d="m 0,0 243.805,0 0,393.819 L 0,393.819 0,0 z"
         id="path842" /></clipPath><clipPath
       clipPathUnits="userSpaceOnUse"
       id="clipPath876"><path
         d="M 556.195,0 800,0 l 0,393.819 -243.805,0 0,-393.819 z"
         id="path878" /></clipPath><clipPath
       clipPathUnits="userSpaceOnUse"
       id="clipPath912"><path
         d="M 0,800 800,800 800,0 0,0 0,800 z"
         id="path914" /></clipPath><clipPath
       clipPathUnits="userSpaceOnUse"
       id="clipPath582-4"><path
         inkscape:connector-curvature="0"
         d="m 182,588.999 174,0 0,-520 -174,0 0,520 z"
         id="path584-1" /></clipPath><clipPath
       clipPathUnits="userSpaceOnUse"
       id="clipPath582-4-4"><path
         inkscape:connector-curvature="0"
         d="m 182,588.999 174,0 0,-520 -174,0 0,520 z"
         id="path584-1-3" /></clipPath><linearGradient
       id="linearGradient3890-7"><stop
         id="stop3892-1"
         offset="0"
         style="stop-color:#ffffff;stop-opacity:1;" /><stop
         id="stop3894-4"
         offset="1"
         style="stop-color:#e5e5e5;stop-opacity:1;" /></linearGradient><linearGradient
       id="linearGradient3387"><stop
         id="stop3389"
         offset="0"
         style="stop-color:#ffffff;stop-opacity:1;" /><stop
         id="stop3391"
         offset="1"
         style="stop-color:#e5e5e5;stop-opacity:1;" /></linearGradient><linearGradient
       inkscape:collect="always"
       xlink:href="#linearGradient3890-7"
       id="linearGradient3364"
       gradientUnits="userSpaceOnUse"
       x1="298.84506"
       y1="578.27429"
       x2="346.15494"
       y2="621.65894" /><linearGradient
       id="linearGradient3394"><stop
         id="stop3396"
         offset="0"
         style="stop-color:#ffffff;stop-opacity:1;" /><stop
         id="stop3398"
         offset="1"
         style="stop-color:#e5e5e5;stop-opacity:1;" /></linearGradient></defs><sodipodi:namedview
     pagecolor="#ffffff"
     bordercolor="#666666"
     borderopacity="1"
     objecttolerance="10"
     gridtolerance="10"
     guidetolerance="10"
     inkscape:pageopacity="0"
     inkscape:pageshadow="2"
     inkscape:window-width="1600"
     inkscape:window-height="839"
     id="namedview4"
     showgrid="false"
     inkscape:zoom="0.3337544"
     inkscape:cx="-632.17504"
     inkscape:cy="370.99131"
     inkscape:window-x="0"
     inkscape:window-y="27"
     inkscape:window-maximized="0"
     inkscape:current-layer="g10"
     inkscape:snap-global="true" /><g
     id="g10"
     inkscape:groupmode="layer"
     inkscape:label="news paper2"
     transform="matrix(1.25,0,0,-1.25,0,1000)"><g
       id="g580" /><g
       transform="matrix(3.0985082,0,0,-4.4196598,-594.90859,1303.4167)"
       style="font-size:40px;font-style:normal;font-weight:normal;line-height:125%;letter-spacing:0px;word-spacing:0px;fill:#000000;fill-opacity:1;stroke:none;font-family:Sans;-inkscape-font-specification:TSCu_Times"
       id="flowRoot4411" /><path
       style="fill:#ffa245;fill-opacity:1;stroke:none"
       d="M 345.02335,22.844263 C 132.32271,129.77962 118.7686,261.08406 189.05757,403.50682 c 71.64084,145.16282 193.31644,262.56576 153.84753,339.64027 -6.10275,11.91737 -81.07861,53.00493 23.55065,19.48834 C 466.62361,730.54805 585.53279,559.39129 627.55313,457.14201 720.9397,229.90222 495.47393,21.473735 480.54768,28.716575 c -14.92533,7.242945 20.27503,8.903388 41.96026,63.484116 23.14598,58.258239 -8.65979,39.785749 -8.65979,39.785749 0,0 -30.52447,-37.018447 -53.1888,-36.897578 -25.52399,0.135831 -55.36425,-7.550333 -29.8864,81.002818 25.47725,88.55326 -15.42263,204.06718 -15.42263,204.06718 0,0 -47.80486,-46.52842 -87.50437,-120.28698 C 257.84147,129.8072 274.69897,98.696221 351.47497,45.016375 365.18023,35.434102 345.02335,22.844263 345.02335,22.844263 Z"
       id="path4448"
       inkscape:connector-curvature="0"
       sodipodi:nodetypes="csssssscsscssc" /></g></svg>